<svg version="1.1" id="Layer_1" xmlns="http://www.w3.org/2000/svg" xmlns:xlink="http://www.w3.org/1999/xlink" x="0px" y="0px"
	 width="100%" viewBox="0 0 104 103" enable-background="new 0 0 104 103" xml:space="preserve">
<path fill="#82E8DE" opacity="1.000000" stroke="none" 
	d="
M1.000000,103.000000 
	C1.000000,70.325279 0.988278,37.650536 1.042271,4.975901 
	C1.044462,3.650077 1.666667,2.325277 2.507321,1.352839 
	C4.128438,3.089362 5.127161,4.587659 6.373662,5.839171 
	C20.275080,19.796465 34.231415,33.699100 48.115170,47.673874 
	C49.336376,48.903080 50.149998,50.537212 51.078098,52.326462 
	C49.881054,54.067692 48.876293,55.582676 47.618580,56.845787 
	C34.039246,70.483368 20.383255,84.044983 6.868815,97.746307 
	C5.516993,99.116821 4.958786,101.270126 4.017331,103.031464 
	C4.002400,103.002777 4.060763,103.030624 3.687332,102.922852 
	C2.542601,102.876717 1.771300,102.938354 1.000000,103.000000 
z"/>
<path fill="#FFFFFF" opacity="1.000000" stroke="none" 
	d="
M105.000000,53.000000 
	C105.000000,69.950928 105.000000,86.901855 105.000000,104.000000 
	C71.645905,104.000000 38.291611,104.000000 4.473361,103.757004 
	C4.009407,103.514000 4.060763,103.030624 4.060763,103.030624 
	C4.060763,103.030624 4.002400,103.002777 4.385588,102.998550 
	C25.718309,92.580818 46.675461,82.182526 67.593491,71.706100 
	C68.575455,71.214302 69.208969,70.026787 70.397552,69.090576 
	C73.302803,68.067596 75.902222,67.297569 78.312195,66.134872 
	C87.241943,61.826679 96.109238,57.389015 105.000000,53.000000 
z"/>
<path fill="#FFFFFF" opacity="1.000000" stroke="none" 
	d="
M6.000000,1.000000 
	C38.902821,1.000000 71.805641,1.000000 105.000000,1.000000 
	C105.000000,17.353073 105.000000,33.707878 104.624969,50.527809 
	C83.010223,40.381847 61.729546,29.851635 40.547039,19.127529 
	C28.945745,13.254123 17.510256,7.053224 6.000000,1.000000 
z"/>
<path fill="#262161" opacity="1.000000" stroke="none" 
	d="
M5.625000,1.000000 
	C17.510256,7.053224 28.945745,13.254123 40.547039,19.127529 
	C61.729546,29.851635 83.010223,40.381847 104.624969,50.996468 
	C105.000000,51.444447 105.000000,51.888889 105.000000,52.666664 
	C96.109238,57.389015 87.241943,61.826679 78.312195,66.134872 
	C75.902222,67.297569 73.302803,68.067596 70.091637,68.933517 
	C63.312931,63.227200 57.232929,57.605232 51.152927,51.983269 
	C50.149998,50.537212 49.336376,48.903080 48.115170,47.673874 
	C34.231415,33.699100 20.275080,19.796465 6.373662,5.839171 
	C5.127161,4.587659 4.128438,3.089362 3.007321,1.352839 
	C3.750000,1.000000 4.500000,1.000000 5.625000,1.000000 
z"/>
<path fill="#00ADF0" opacity="1.000000" stroke="none" 
	d="
M3.687332,102.922852 
	C4.060763,103.030624 4.009407,103.514000 4.004704,103.757004 
	C3.000000,104.000000 2.000000,104.000000 1.000000,103.500000 
	C1.771300,102.938354 2.542601,102.876717 3.687332,102.922852 
z"/>
<path fill="#00ADF0" opacity="1.000000" stroke="none" 
	d="
M51.078098,52.326462 
	C57.232929,57.605232 63.312931,63.227200 69.698853,69.006226 
	C69.208969,70.026787 68.575455,71.214302 67.593491,71.706100 
	C46.675461,82.182526 25.718309,92.580818 4.400518,103.027237 
	C4.958786,101.270126 5.516993,99.116821 6.868815,97.746307 
	C20.383255,84.044983 34.039246,70.483368 47.618580,56.845787 
	C48.876293,55.582676 49.881054,54.067692 51.078098,52.326462 
z"/>
</svg>